# xmcd CD database file
#
# Track frame offsets:
#	150
#	13872
#	30010
#	43657
#	58840
#	73250
#	87397
#	101267
#	114070
#	131947
#	146580
#	162437
#	177000
#	201652
#
# Disc length: 3279 seconds
#
# Revision: 0
# Processed by: cddbd v1.5.1PL0 Copyright (c) Steve Scherf et al.
# Submitted via: CDex 1.51
#
DISCID=c30ccd0e
DTITLE=Mendez - La Maquina
DYEAR=2005
DGENRE=Salsa
TTITLE0=Is that ok?
TTITLE1=Chica
TTITLE2=Valpariso (feat Yei and Andile)
TTITLE3=Street salsa (feat Yei)
TTITLE4=Top of the world
TTITLE5=Why do lovers cheat
TTITLE6=Fling
TTITLE7=Go to go
TTITLE8=Imaginate
TTITLE9=Ya'po
TTITLE10=El Libro
TTITLE11=La Bomba
TTITLE12=Tequila
TTITLE13=Data track
EXTD=YEAR: 2005
EXTT0=
EXTT1=
EXTT2=
EXTT3=
EXTT4=
EXTT5=
EXTT6=
EXTT7=
EXTT8=
EXTT9=
EXTT10=
EXTT11=
EXTT12=
EXTT13=
PLAYORDER=
